<svg width="23.309353" height="23.336670" viewBox="0 0 23.3094 23.3367" fill="none" xmlns="http://www.w3.org/2000/svg" xmlns:xlink="http://www.w3.org/1999/xlink">
	<desc>
			Created with Pixso.
	</desc>
	<defs>
		<clipPath id="clip2_370">
			<rect id="Heart" rx="0.000000" width="22.309353" height="22.336683" transform="translate(0.500000 0.500000)" fill="white" fill-opacity="0"/>
		</clipPath>
	</defs>
	<rect id="Heart" rx="0.000000" width="22.309353" height="22.336683" transform="translate(0.500000 0.500000)" fill="#FFFFFF" fill-opacity="0"/>
	<g clip-path="url(#clip2_370)">
		<path id="Vector" d="M11.65 20.97L3.41 12.72C2.32 11.63 1.7 10.14 1.7 8.59C1.7 7.05 2.32 5.56 3.41 4.47C4.5 3.37 5.98 2.76 7.53 2.76C9.07 2.76 10.56 3.37 11.65 4.47C12.74 3.38 14.23 2.76 15.77 2.76C17.32 2.76 18.8 3.38 19.89 4.47C20.98 5.56 21.59 7.05 21.59 8.59C21.59 10.14 20.98 11.62 19.89 12.72L11.65 20.97ZM7.53 4.7C6.76 4.7 6.01 4.93 5.37 5.36C4.73 5.79 4.23 6.39 3.94 7.11C3.65 7.82 3.57 8.6 3.72 9.35C3.87 10.11 4.24 10.8 4.78 11.34L11.65 18.22L18.52 11.34C18.91 10.96 19.22 10.49 19.42 9.98C19.62 9.46 19.71 8.91 19.68 8.36C19.65 7.81 19.51 7.27 19.25 6.78C19 6.29 18.65 5.86 18.21 5.51C17.78 5.17 17.28 4.92 16.75 4.79C16.21 4.66 15.65 4.64 15.11 4.74C14.57 4.83 14.05 5.05 13.6 5.36C13.14 5.67 12.76 6.08 12.48 6.55L11.65 7.89L10.82 6.55C10.48 5.98 10 5.52 9.42 5.19C8.84 4.87 8.19 4.7 7.53 4.71L7.53 4.7Z" fill="#757575" fill-opacity="1.000000" fill-rule="nonzero"/>
	</g>
</svg>
