<svg width="19.431654" height="15.144531" viewBox="0 0 19.4317 15.1445" fill="none" xmlns="http://www.w3.org/2000/svg" xmlns:xlink="http://www.w3.org/1999/xlink">
	<desc>
			Created with Pixso.
	</desc>
	<defs/>
	<path id="Vector" d="M18.83 5.48C17.58 3.43 14.72 0 9.71 0C4.7 0 1.84 3.43 0.59 5.48C0.2 6.1 0 6.83 0 7.57C0 8.31 0.2 9.03 0.59 9.66C1.84 11.71 4.7 15.14 9.71 15.14C14.72 15.14 17.58 11.71 18.83 9.66C19.22 9.03 19.43 8.31 19.43 7.57C19.43 6.83 19.22 6.1 18.83 5.48ZM17.45 8.81C16.37 10.57 13.93 13.52 9.71 13.52C5.49 13.52 3.05 10.57 1.97 8.81C1.74 8.44 1.62 8.01 1.62 7.57C1.62 7.13 1.74 6.7 1.97 6.32C3.05 4.57 5.49 1.62 9.71 1.62C13.93 1.62 16.37 4.57 17.45 6.32C17.68 6.7 17.81 7.13 17.81 7.57C17.81 8.01 17.68 8.44 17.45 8.81Z" fill="#757575" fill-opacity="1.000000" fill-rule="nonzero"/>
	<path id="Vector" d="M9.71 3.52C8.91 3.52 8.13 3.75 7.46 4.2C6.8 4.64 6.28 5.28 5.97 6.02C5.67 6.76 5.59 7.57 5.74 8.36C5.9 9.14 6.28 9.87 6.85 10.43C7.42 11 8.14 11.38 8.92 11.54C9.71 11.7 10.52 11.62 11.26 11.31C12 11 12.63 10.48 13.08 9.82C13.52 9.15 13.76 8.37 13.76 7.57C13.76 6.49 13.33 5.46 12.57 4.7C11.81 3.94 10.78 3.52 9.71 3.52ZM9.71 10C9.23 10 8.76 9.86 8.36 9.59C7.96 9.32 7.65 8.94 7.47 8.5C7.28 8.05 7.24 7.56 7.33 7.09C7.42 6.62 7.65 6.19 7.99 5.85C8.33 5.51 8.77 5.28 9.24 5.18C9.71 5.09 10.2 5.14 10.64 5.32C11.08 5.51 11.46 5.82 11.73 6.22C12 6.62 12.14 7.09 12.14 7.57C12.14 8.21 11.88 8.83 11.43 9.29C10.97 9.74 10.35 10 9.71 10Z" fill="#757575" fill-opacity="1.000000" fill-rule="nonzero"/>
</svg>
