<svg width="29.584005" height="29.618652" viewBox="0 0 29.584 29.6187" fill="none" xmlns="http://www.w3.org/2000/svg" xmlns:xlink="http://www.w3.org/1999/xlink">
	<desc>
			Created with Pixso.
	</desc>
	<defs>
		<clipPath id="clip2_379">
			<rect id="refresh 1" rx="0.000000" width="19.996422" height="19.992619" transform="translate(16.442368 0.500000) rotate(49.480068)" fill="white" fill-opacity="0"/>
		</clipPath>
	</defs>
	<rect id="refresh 1" rx="0.000000" width="19.996422" height="19.992619" transform="translate(16.442368 0.500000) rotate(49.480068)" fill="#FFFFFF" fill-opacity="0"/>
	<g clip-path="url(#clip2_379)">
		<path id="Vector" d="M8.96 9.12C9.72 8.3 10.6 7.68 11.55 7.26C14.68 5.85 18.49 6.57 20.85 9.28L22.49 7.88C22.58 7.8 22.73 7.87 22.73 7.99L23.14 13.48C23.15 13.57 23.06 13.65 22.98 13.62L17.63 12.38C17.5 12.35 17.46 12.19 17.55 12.12L19.18 10.72C17.62 8.95 15.2 8.36 13.07 9.04C12.27 9.3 11.51 9.73 10.85 10.35C9.95 11.21 9.39 12.3 9.16 13.46C9.05 14.08 8.44 14.48 7.83 14.33C7.24 14.2 6.88 13.62 7 13.03C7.27 11.6 7.92 10.24 8.96 9.12ZM20.42 16.15C20.2 17.31 19.63 18.41 18.73 19.27C18.07 19.89 17.31 20.32 16.51 20.58C14.38 21.26 11.96 20.67 10.4 18.9L12.03 17.5C12.12 17.42 12.07 17.27 11.96 17.24L6.6 15.99C6.51 15.97 6.43 16.04 6.44 16.13L6.84 21.62C6.85 21.74 7 21.81 7.09 21.73L8.72 20.33C11.09 23.04 14.9 23.77 18.03 22.35C18.97 21.93 19.85 21.31 20.62 20.49C21.65 19.38 22.31 18.02 22.58 16.58C22.69 15.99 22.33 15.42 21.75 15.28C21.14 15.14 20.53 15.54 20.42 16.15Z" fill="#757575" fill-opacity="1.000000" fill-rule="nonzero"/>
		<path id="Vector" d="M11.55 7.26C14.68 5.85 18.49 6.57 20.85 9.28L22.49 7.88C22.58 7.8 22.73 7.87 22.73 7.99L23.14 13.48C23.15 13.57 23.06 13.65 22.98 13.62L17.63 12.38C17.5 12.35 17.46 12.19 17.55 12.12L19.18 10.72C17.62 8.95 15.2 8.36 13.07 9.04C12.27 9.3 11.51 9.73 10.85 10.35C9.95 11.21 9.39 12.3 9.16 13.46C9.05 14.08 8.44 14.48 7.83 14.33C7.24 14.2 6.88 13.62 7 13.03C7.27 11.6 7.92 10.24 8.96 9.12C9.72 8.3 10.6 7.68 11.55 7.26ZM18.73 19.27C18.07 19.89 17.31 20.32 16.51 20.58C14.38 21.26 11.96 20.67 10.4 18.9L12.03 17.5C12.12 17.42 12.07 17.27 11.96 17.24L6.6 15.99C6.51 15.97 6.43 16.04 6.44 16.13L6.84 21.62C6.85 21.74 7 21.81 7.09 21.73L8.72 20.33C11.09 23.04 14.9 23.77 18.03 22.35C18.97 21.93 19.85 21.31 20.62 20.49C21.65 19.38 22.31 18.02 22.58 16.58C22.69 15.99 22.33 15.42 21.75 15.28C21.14 15.14 20.53 15.54 20.42 16.15C20.2 17.31 19.63 18.41 18.73 19.27Z" stroke="#FFFFFF" stroke-opacity="1.000000" stroke-width="0.300000"/>
	</g>
</svg>
