<svg width="19.424461" height="19.447266" viewBox="0 0 19.4245 19.4473" fill="none" xmlns="http://www.w3.org/2000/svg" xmlns:xlink="http://www.w3.org/1999/xlink">
	<desc>
			Created with Pixso.
	</desc>
	<defs>
		<clipPath id="clip2_373">
			<rect id="fi-rr-shopping-bag-add 1" rx="0.000000" width="18.424461" height="18.447237" transform="translate(0.500000 0.500000)" fill="white" fill-opacity="0"/>
		</clipPath>
	</defs>
	<rect id="fi-rr-shopping-bag-add 1" rx="0.000000" width="18.424461" height="18.447237" transform="translate(0.500000 0.500000)" fill="#FFFFFF" fill-opacity="0"/>
	<g clip-path="url(#clip2_373)">
		<path id="Vector" d="M18.61 15.39L16.99 15.39L16.99 13.77C16.99 13.56 16.91 13.35 16.75 13.2C16.6 13.05 16.4 12.96 16.18 12.96C15.97 12.96 15.76 13.05 15.61 13.2C15.46 13.35 15.37 13.56 15.37 13.77L15.37 15.39L13.75 15.39C13.54 15.39 13.33 15.48 13.18 15.63C13.03 15.78 12.94 15.99 12.94 16.2C12.94 16.42 13.03 16.62 13.18 16.77C13.33 16.93 13.54 17.01 13.75 17.01L15.37 17.01L15.37 18.63C15.37 18.85 15.46 19.05 15.61 19.2C15.76 19.36 15.97 19.44 16.18 19.44C16.4 19.44 16.6 19.36 16.75 19.2C16.91 19.05 16.99 18.85 16.99 18.63L16.99 17.01L18.61 17.01C18.82 17.01 19.03 16.93 19.18 16.77C19.33 16.62 19.42 16.42 19.42 16.2C19.42 15.99 19.33 15.78 19.18 15.63C19.03 15.48 18.82 15.39 18.61 15.39Z" fill="#757575" fill-opacity="1.000000" fill-rule="nonzero"/>
		<path id="Vector" d="M16.99 4.86L14.56 4.86C14.56 3.57 14.05 2.33 13.14 1.42C12.23 0.51 11 0 9.71 0C8.42 0 7.18 0.51 6.27 1.42C5.36 2.33 4.85 3.57 4.85 4.86L2.42 4.86C1.78 4.86 1.16 5.11 0.71 5.57C0.25 6.02 0 6.64 0 7.29L0 15.39C0 16.46 0.42 17.49 1.18 18.25C1.94 19.01 2.97 19.44 4.04 19.44L11.33 19.44C11.54 19.44 11.75 19.36 11.9 19.2C12.05 19.05 12.14 18.85 12.14 18.63C12.14 18.42 12.05 18.21 11.9 18.06C11.75 17.91 11.54 17.82 11.33 17.82L4.04 17.82C3.4 17.82 2.78 17.57 2.32 17.11C1.87 16.65 1.61 16.04 1.61 15.39L1.61 7.29C1.61 7.07 1.7 6.87 1.85 6.71C2 6.56 2.21 6.48 2.42 6.48L4.85 6.48L4.85 8.1C4.85 8.31 4.94 8.52 5.09 8.67C5.24 8.82 5.45 8.91 5.66 8.91C5.88 8.91 6.08 8.82 6.23 8.67C6.38 8.52 6.47 8.31 6.47 8.1L6.47 6.48L12.94 6.48L12.94 8.1C12.94 8.31 13.03 8.52 13.18 8.67C13.33 8.82 13.54 8.91 13.75 8.91C13.97 8.91 14.17 8.82 14.33 8.67C14.48 8.52 14.56 8.31 14.56 8.1L14.56 6.48L16.99 6.48C17.21 6.48 17.41 6.56 17.56 6.71C17.72 6.87 17.8 7.07 17.8 7.29L17.8 11.34C17.8 11.55 17.89 11.76 18.04 11.91C18.19 12.06 18.4 12.15 18.61 12.15C18.82 12.15 19.03 12.06 19.18 11.91C19.33 11.76 19.42 11.55 19.42 11.34L19.42 7.29C19.42 6.64 19.16 6.02 18.71 5.57C18.25 5.11 17.64 4.86 16.99 4.86ZM6.47 4.86C6.47 4 6.81 3.17 7.42 2.56C8.03 1.96 8.85 1.62 9.71 1.62C10.57 1.62 11.39 1.96 12 2.56C12.6 3.17 12.94 4 12.94 4.86L6.47 4.86Z" fill="#757575" fill-opacity="1.000000" fill-rule="nonzero"/>
	</g>
</svg>
